<?xml version="1.0" encoding="utf-8"?>
<!-- Generator: Adobe Illustrator 21.0.0, SVG Export Plug-In . SVG Version: 6.00 Build 0)  -->
<svg version="1.1" id="Isolation_Mode" xmlns="http://www.w3.org/2000/svg" xmlns:xlink="http://www.w3.org/1999/xlink" x="0px"
	 y="0px" viewBox="0 0 60 60" style="enable-background:new 0 0 60 60;" xml:space="preserve">
<style type="text/css">
	.st0{fill:url(#SVGID_1_);fill-opacity:0;}
	.st1{opacity:0.6;}
	.st2{fill:url(#SVGID_2_);}
</style>
<title>30-zile-retur</title>
<linearGradient id="SVGID_1_" gradientUnits="userSpaceOnUse" x1="62.4584" y1="-28.9499" x2="-2.4584" y2="-23.0501" gradientTransform="matrix(1 0 0 1 0 56)">
	<stop  offset="0" style="stop-color:#BD489A"/>
	<stop  offset="1" style="stop-color:#2B499E"/>
</linearGradient>
<rect y="0" class="st0" width="60" height="60"/>
<g class="st1">
	
		<linearGradient id="SVGID_2_" gradientUnits="userSpaceOnUse" x1="-83.6062" y1="250.8501" x2="-18.7701" y2="250.8501" gradientTransform="matrix(-0.7071 0.7071 -0.7071 -0.7071 172.8476 245.592)">
		<stop  offset="0" style="stop-color:#BD489A"/>
		<stop  offset="1" style="stop-color:#2B499E"/>
	</linearGradient>
	<path class="st2" d="M43.3,57.4c-0.1,0.1-0.2,0.2-0.3,0.3c-0.9,0.9-2.2,1.4-3.6,1.2l-29.1-3.7c-2.4-0.3-4-2.4-3.7-4.8v-0.1l3-18.8
		c0-0.2,0.1-0.4,0.1-0.6l0.1-9.5c0-1,0.3-1.9,1-2.7l0,0L24.2,2.5c1-1.2,2.6-1.8,4.2-1.5L50,5.5c2.3,0.5,3.8,2.7,3.4,5.1
		c-0.1,0.4-0.2,0.9-0.5,1.2L42.5,30.6c-0.4,0.8-0.6,1.7-0.5,2.5l2.3,21.1C44.4,55.4,44,56.5,43.3,57.4z"/>
</g>
<path d="M45,18.1c-7.5-7.5-19.7-7.5-27.2,0c-7.5,7.5-7.5,19.7,0,27.2l0.6,0.6l-8.4-1.7c-0.3-0.1-0.7,0.2-0.7,0.5
	c-0.1,0.3,0.2,0.7,0.5,0.7l10.4,2.1c0,0,0.1,0,0.1,0c0.1,0,0.2,0,0.2,0c0,0,0,0,0.1,0c0,0,0.1,0,0.1-0.1c0,0,0,0,0,0c0,0,0,0,0,0
	c0.1-0.1,0.1-0.1,0.1-0.2c0,0,0,0,0,0c0-0.1,0-0.2,0-0.3c0,0,0,0,0,0l-0.7-10.4c0-0.3-0.3-0.6-0.7-0.6c-0.3,0-0.6,0.3-0.6,0.7
	l0.6,8.7l-0.9-0.9c-7-7-7-18.4,0-25.4c7-7,18.4-7,25.4,0c3.4,3.4,5.3,7.9,5.3,12.7c0,4.8-1.9,9.3-5.3,12.7c-0.2,0.2-0.2,0.6,0,0.9
	c0.2,0.2,0.6,0.2,0.9,0c3.6-3.6,5.7-8.5,5.7-13.6C50.7,26.5,48.7,21.7,45,18.1z"/>
<path d="M25.2,27.9h1.3c0.6,0,1.1-0.2,1.5-0.5c0.4-0.4,0.6-0.9,0.6-1.4s-0.1-1-0.5-1.4s-0.9-0.5-1.4-0.5s-1,0.2-1.4,0.5
	s-0.6,0.8-0.5,1.3h-2.1c0-0.6,0.2-1.2,0.5-1.8c0.4-0.5,0.8-1,1.4-1.2c0.6-0.3,1.3-0.4,2-0.4c1.1-0.1,2.1,0.3,2.9,0.9
	c0.7,0.7,1.2,1.6,1.1,2.6c0,0.6-0.2,1.1-0.5,1.6c-0.4,0.5-0.8,0.9-1.4,1.1c0.6,0.2,1.2,0.6,1.6,1.1s0.6,1.2,0.5,1.8
	c0,1-0.4,2-1.2,2.7c-0.8,0.7-1.9,1-3,1s-2.2-0.3-3-1c-0.8-0.6-1.2-1.6-1.1-2.6h2.1c0,0.5,0.2,1,0.5,1.3c0.4,0.4,0.9,0.5,1.5,0.5
	s1.1-0.2,1.5-0.5c0.4-0.4,0.6-0.9,0.6-1.5c0-0.6-0.2-1.1-0.6-1.5c-0.5-0.4-1.1-0.6-1.7-0.5h-1.2C25.2,29.5,25.2,27.9,25.2,27.9z"/>
<path d="M41,29.9c0.1,1.4-0.2,2.9-1,4.1c-0.7,0.9-1.9,1.5-3.1,1.4c-1.2,0.1-2.3-0.4-3.1-1.3c-0.8-1.2-1.1-2.6-1-4V28
	c-0.1-1.4,0.3-2.8,1-4c0.7-0.9,1.9-1.4,3.1-1.4c1.2-0.1,2.3,0.4,3.1,1.3c0.7,1.2,1.1,2.5,1,3.9V29.9z M38.9,27.5
	c0.1-0.9-0.1-1.7-0.5-2.5c-0.6-0.8-1.7-1-2.6-0.4c-0.2,0.1-0.3,0.3-0.4,0.4c-0.4,0.8-0.6,1.6-0.5,2.4v2.8c-0.1,0.9,0.1,1.8,0.5,2.6
	c0.3,0.6,0.9,0.9,1.5,0.9s1.2-0.3,1.5-0.8c0.4-0.8,0.6-1.6,0.5-2.5V27.5z"/>
</svg>
