<?xml version="1.0" encoding="utf-8"?>
<!-- Generator: Adobe Illustrator 21.0.0, SVG Export Plug-In . SVG Version: 6.00 Build 0)  -->
<svg version="1.1" id="Isolation_Mode" xmlns="http://www.w3.org/2000/svg" xmlns:xlink="http://www.w3.org/1999/xlink" x="0px"
	 y="0px" viewBox="0 0 60 60" style="enable-background:new 0 0 60 60;" xml:space="preserve">
<style type="text/css">
	.st0{fill:url(#SVGID_1_);fill-opacity:0;}
	.st1{opacity:0.6;}
	.st2{fill:url(#SVGID_2_);}
</style>
<title>ajutori-prin-telefon</title>
<linearGradient id="SVGID_1_" gradientUnits="userSpaceOnUse" x1="62.4584" y1="-28.9499" x2="-2.4584" y2="-23.0501" gradientTransform="matrix(1 0 0 1 0 56)">
	<stop  offset="0" style="stop-color:#BD489A"/>
	<stop  offset="1" style="stop-color:#2B499E"/>
</linearGradient>
<rect y="0" class="st0" width="60" height="60"/>
<g class="st1">
	
		<linearGradient id="SVGID_2_" gradientUnits="userSpaceOnUse" x1="-452.8469" y1="125.6027" x2="-403.6488" y2="125.6027" gradientTransform="matrix(0.9558 0.294 -0.294 0.9558 475.8441 35.7247)">
		<stop  offset="0" style="stop-color:#BD489A"/>
		<stop  offset="1" style="stop-color:#2B499E"/>
	</linearGradient>
	<path class="st2" d="M29.7,58.2c-6.5,2.4-13.7-0.9-16.1-7.4c-0.1-0.3-0.2-0.5-0.3-0.8L6.7,27.7C5.5,23.8,6.4,19.5,9,16.3l8.6-10.6
		c2.6-3.2,6.5-5,10.6-4.7L38,1.8c3.2,0.2,6.2,1.7,8.3,4.1l4,4.3c2,2.2,3.2,5.1,3.3,8.2l0.3,14.2c0.1,3.6-1.4,7-4,9.4L37.3,53.7
		c-0.7,0.7-1.5,1.2-2.3,1.7l-3.5,2C30.9,57.7,30.3,58,29.7,58.2z"/>
</g>
<g>
	<path d="M48.4,26.5c-1.3-1.3-2.9-2.1-4.7-2.3v-0.3c0-7.5-6.1-13.6-13.6-13.6s-13.6,6.1-13.6,13.6v0.3c-1.8,0.2-3.5,1-4.7,2.3
		C10.3,28,9.5,30,9.6,32c0.1,3.1,2,5.8,4.9,6.9C14.8,39,15,39,15.3,39c0.3,0,0.7-0.1,1-0.2c0.6-0.3,1-0.7,1.2-1.2
		c0.2-0.3,0.2-0.6,0.2-0.9v-9.3v-2.6v-0.9c0-6.8,5.6-12.4,12.4-12.4c6.8,0,12.4,5.6,12.4,12.4v0.9v2.6v9.3c0,0.2,0,0.5,0.1,0.7v4.8
		c0,2.9-2.3,4.3-4.8,4.5v-0.1c0-0.8-0.7-1.5-1.5-1.5h-7c-1.3,0-2.3,1-2.3,2.4c0,1.3,1,2.3,2.3,2.3h7c0.8,0,1.5-0.7,1.5-1.5V48
		c3.6-0.2,6.1-2.6,6.1-5.8v-3.4c0.3,0.1,0.6,0.2,1,0.2c0.3,0,0.5,0,0.8-0.1c2.9-1.1,4.8-3.8,4.9-6.9C50.5,30,49.7,28,48.4,26.5z
		 M16.4,36.7c0,0.2,0,0.3-0.1,0.4c-0.1,0.3-0.4,0.5-0.5,0.6c-0.3,0.1-0.6,0.1-0.9,0c-2.4-0.9-4-3.1-4.1-5.7c0-1.7,0.6-3.4,1.7-4.6
		c1-1.1,2.4-1.7,3.8-1.9v1.9V36.7z M36.4,48.3c0,0.2-0.1,0.3-0.3,0.3h-7c-0.7,0-1.1-0.5-1.1-1.1c0-0.8,0.5-1.2,1.1-1.2h7
		c0.2,0,0.3,0.1,0.3,0.3V48.3z M45.1,37.7c-0.5,0.2-1.1,0-1.4-0.6v-0.6c0-0.1,0-0.2-0.1-0.3v-8.8v-1.9c1.5,0.2,2.8,0.9,3.8,1.9
		c1.2,1.2,1.8,2.9,1.7,4.6C49.1,34.6,47.5,36.8,45.1,37.7z"/>
	<path d="M36,35.9c0.2-0.2,0.2-0.6,0-0.9c-0.2-0.2-0.6-0.2-0.9,0c-2.8,2.8-7.5,2.8-10.3,0c-0.2-0.2-0.6-0.2-0.9,0
		c-0.2,0.2-0.2,0.6,0,0.9c1.7,1.7,3.9,2.5,6,2.5C32.2,38.4,34.4,37.6,36,35.9z"/>
	<path d="M25.4,27.2c0-0.5-0.5-1-1-1c-0.6,0-1,0.4-1,1c0,0.5,0.5,1,1,1S25.4,27.7,25.4,27.2z"/>
	<path d="M36.7,27.2c0-0.5-0.5-1-1-1c-0.6,0-1,0.4-1,1c0,0.5,0.5,1,1,1S36.7,27.7,36.7,27.2z"/>
</g>
</svg>
