<?xml version="1.0" encoding="utf-8"?>
<!-- Generator: Adobe Illustrator 21.0.0, SVG Export Plug-In . SVG Version: 6.00 Build 0)  -->
<svg version="1.1" id="Isolation_Mode" xmlns="http://www.w3.org/2000/svg" xmlns:xlink="http://www.w3.org/1999/xlink" x="0px"
	 y="0px" viewBox="0 0 60 60" style="enable-background:new 0 0 60 60;" xml:space="preserve">
<style type="text/css">
	.st0{fill:url(#SVGID_1_);fill-opacity:0;}
	.st1{opacity:0.6;}
	.st2{fill:url(#SVGID_2_);}
</style>
<title>dovada-calitatii</title>
<linearGradient id="SVGID_1_" gradientUnits="userSpaceOnUse" x1="62.4583" y1="31.7799" x2="-2.4583" y2="25.8801" gradientTransform="matrix(1 0 0 -1 0 58.83)">
	<stop  offset="0" style="stop-color:#BD489A"/>
	<stop  offset="1" style="stop-color:#2B499E"/>
</linearGradient>
<rect y="0" class="st0" width="60" height="60"/>
<g class="st1">
	
		<linearGradient id="SVGID_2_" gradientUnits="userSpaceOnUse" x1="-294.4156" y1="38.556" x2="-245.2289" y2="38.556" gradientTransform="matrix(0.294 -0.9558 -0.9558 -0.294 146.074 -216.1225)">
		<stop  offset="0" style="stop-color:#BD489A"/>
		<stop  offset="1" style="stop-color:#2B499E"/>
	</linearGradient>
	<path class="st2" d="M58.2,30.3c2.4,6.5-0.9,13.7-7.4,16.1c-0.3,0.1-0.5,0.2-0.8,0.3l-22.3,6.6c-3.9,1.2-8.2,0.3-11.4-2.3L5.7,42.4
		c-3.2-2.6-5-6.5-4.7-10.6L1.8,22c0.2-3.2,1.7-6.2,4.1-8.3l4.3-4c2.2-2,5.1-3.2,8.2-3.3l14.2-0.3c3.6-0.1,7,1.4,9.4,4l11.7,12.6
		c0.7,0.7,1.2,1.5,1.7,2.3l2,3.5C57.7,29.1,58,29.7,58.2,30.3z"/>
</g>
<g id="Shape_309">
	<path d="M34.2,33.7c-0.2,0-0.5-0.1-0.7-0.2l-3.7-2l-3.7,2c-0.5,0.3-1.2,0.2-1.7-0.2c-0.5-0.4-0.7-1.1-0.4-1.8l1.5-3.2l-2.7-2.6
		c-0.4-0.3-0.6-1-0.4-1.6c0.3-0.6,0.8-0.9,1.4-0.9l3,0l1.6-3.1c0.2-0.4,0.6-0.6,1-0.7c0.4-0.1,0.8,0,1.2,0.2
		c0.2,0.1,0.4,0.3,0.5,0.5c0,0,0,0,0,0l1.6,3.1h3c0.6,0,1.1,0.3,1.4,0.9c0.2,0.6,0.1,1.2-0.4,1.6l-2.6,2.6l1.5,3.1
		c0.3,0.6,0.1,1.3-0.4,1.8C34.9,33.5,34.5,33.7,34.2,33.7z M29.8,30.2c0.1,0,0.2,0,0.3,0.1l4,2.1c0.1,0.1,0.2,0,0.3,0
		c0.1-0.1,0.1-0.2,0.1-0.2l-1.7-3.5c-0.1-0.2-0.1-0.5,0.1-0.7l3-2.9c0.1-0.1,0.1-0.1,0.1-0.2c0-0.1-0.1-0.1-0.2-0.1l-3.4,0
		c-0.2,0-0.5-0.1-0.6-0.3l-1.7-3.4c0,0-0.1-0.1-0.1-0.1c-0.1-0.1-0.2,0-0.2,0c0,0-0.1,0-0.2,0.1l-1.8,3.4c-0.1,0.2-0.3,0.3-0.6,0.3
		h-3.4c-0.1,0-0.2,0-0.2,0.1c0,0,0,0.1,0,0.1l3,3c0.2,0.2,0.2,0.5,0.1,0.7l-1.6,3.6c0,0.1,0,0.2,0,0.2c0.1,0.1,0.2,0.1,0.3,0l4-2.1
		C29.6,30.2,29.7,30.2,29.8,30.2z"/>
</g>
<g id="Shape_310">
	<path d="M45.7,36.1c-0.2,0-0.5-0.1-0.7-0.2l-2.9-1.5l-2.8,1.5c-0.5,0.3-1.1,0.2-1.5-0.1c-0.4-0.4-0.6-1-0.4-1.5l0.8-1.6
		c0.1-0.3,0.5-0.5,0.8-0.3c0.3,0.1,0.5,0.5,0.3,0.8l-0.8,1.6c0.1,0.1,0.1,0.1,0.2,0l3.1-1.7c0.2-0.1,0.4-0.1,0.6,0l3.2,1.7
		c0,0,0.1,0,0.1,0l-1.3-2.9c-0.1-0.2-0.1-0.5,0.1-0.7L47,29l-2.8,0c-0.2,0-0.5-0.1-0.6-0.4l-1.4-2.9c-0.1,0-0.2,0-0.2,0l-1.4,2.8
		c-0.2,0.3-0.5,0.4-0.8,0.3c-0.3-0.2-0.4-0.5-0.3-0.8l1.4-2.9c0.4-0.7,1.2-0.9,1.9-0.6c0.2,0.1,0.4,0.3,0.5,0.5l1.2,2.5h2.3
		c0.5,0,1,0.3,1.2,0.8c0.2,0.5,0.1,1.1-0.3,1.4l-2.1,1.9l1.1,2.4c0.2,0.5,0.1,1.2-0.4,1.5C46.3,36,46,36.1,45.7,36.1z"/>
</g>
<g id="Shape_310-2">
	<path d="M55.6,40.6c-0.2,0-0.5-0.1-0.7-0.2L52,38.8l-2.9,1.5c-0.5,0.3-1.1,0.2-1.5-0.2c-0.4-0.4-0.6-1-0.4-1.5l0.8-1.6
		c0.1-0.3,0.5-0.5,0.8-0.3c0.3,0.1,0.5,0.5,0.3,0.8l-0.8,1.6c0.1,0.1,0.1,0.1,0.2,0l3.2-1.7c0.2-0.1,0.4-0.1,0.6,0l3.2,1.7
		c0,0,0.1,0,0.1,0l-1.3-2.9c-0.1-0.2-0.1-0.5,0.1-0.7l2.4-2.2l-2.8,0c-0.2,0-0.5-0.1-0.6-0.4l-1.4-2.9l-0.1,0l-1.5,2.9
		c-0.2,0.3-0.5,0.4-0.8,0.3c-0.3-0.2-0.4-0.5-0.3-0.8l1.4-2.9c0.2-0.3,0.5-0.6,0.8-0.7c0.4-0.1,0.7-0.1,1,0.1
		c0.2,0.1,0.4,0.3,0.5,0.5l1.2,2.5h2.3c0.5,0,1,0.3,1.2,0.8c0.2,0.5,0.1,1.1-0.3,1.4l-2,1.9l1.1,2.5c0.2,0.5,0.1,1.2-0.4,1.5
		C56.2,40.5,55.9,40.6,55.6,40.6z"/>
</g>
<g id="Shape_310-3">
	<path d="M14.4,36.1c-0.3,0-0.6-0.1-0.9-0.3c-0.4-0.4-0.6-1-0.4-1.5l1.1-2.5l-2.1-1.9c-0.4-0.3-0.5-0.9-0.3-1.4
		c0.2-0.5,0.7-0.8,1.3-0.8l2.3,0l1.2-2.5c0.1-0.2,0.3-0.4,0.5-0.6c0.7-0.4,1.5-0.1,1.9,0.5l1.4,2.9c0.2,0.3,0,0.7-0.3,0.8
		c-0.3,0.2-0.7,0-0.8-0.3l-1.4-2.9c0,0-0.1,0-0.1,0l-1.4,2.9C16.3,28.8,16,29,15.8,29h-2.7l2.3,2.2c0.2,0.2,0.3,0.5,0.1,0.7
		l-1.3,2.9c0.1,0.1,0.1,0.1,0.2,0l3.2-1.7c0.2-0.1,0.4-0.1,0.6,0l3.1,1.7c0,0,0.1,0,0.1,0l-0.7-1.7c-0.1-0.3,0-0.7,0.3-0.8
		c0.3-0.1,0.7,0,0.8,0.3l0.8,1.6c0.2,0.5,0.1,1.2-0.4,1.5c-0.4,0.4-1,0.4-1.5,0.1l-2.8-1.5L15,35.9C14.8,36,14.6,36.1,14.4,36.1z"/>
</g>
<g id="Shape_310-4">
	<path d="M4.4,40.6c-0.3,0-0.6-0.1-0.9-0.3c-0.4-0.4-0.6-1-0.4-1.5l1.1-2.5l-2-1.9C1.9,34.1,1.8,33.5,2,33c0.2-0.5,0.7-0.8,1.3-0.8
		l2.3,0l1.2-2.5c0.1-0.2,0.3-0.4,0.5-0.6c0.3-0.2,0.7-0.2,1-0.1c0.4,0.1,0.6,0.3,0.8,0.6l1.4,2.9c0.2,0.3,0,0.7-0.3,0.8
		c-0.3,0.2-0.7,0-0.8-0.3L8,30.2l0,0c0,0-0.1,0-0.1,0l0,0l-1.4,2.9c-0.1,0.2-0.3,0.4-0.6,0.4H3.2l2.3,2.2c0.2,0.2,0.3,0.5,0.1,0.7
		l-1.3,2.9c0.1,0.1,0.1,0.1,0.1,0l3.2-1.7c0.2-0.1,0.4-0.1,0.6,0l3.2,1.7c0,0,0.1,0,0.1,0l-0.7-1.7c-0.1-0.3,0-0.7,0.3-0.8
		c0.3-0.1,0.7,0,0.8,0.3l0.8,1.6c0.2,0.5,0.1,1.2-0.4,1.5c-0.4,0.4-1,0.4-1.5,0.1L8,38.8l-2.9,1.6C4.9,40.5,4.7,40.6,4.4,40.6z"/>
</g>
</svg>
