<?xml version="1.0" encoding="utf-8"?>
<!-- Generator: Adobe Illustrator 21.0.0, SVG Export Plug-In . SVG Version: 6.00 Build 0)  -->
<svg version="1.1" id="Isolation_Mode" xmlns="http://www.w3.org/2000/svg" xmlns:xlink="http://www.w3.org/1999/xlink" x="0px"
	 y="0px" viewBox="0 0 60 60" style="enable-background:new 0 0 60 60;" xml:space="preserve">
<style type="text/css">
	.st0{fill:url(#SVGID_1_);fill-opacity:0;}
	.st1{opacity:0.6;}
	.st2{fill:url(#SVGID_2_);}
</style>
<title>livrare-internationala</title>
<linearGradient id="SVGID_1_" gradientUnits="userSpaceOnUse" x1="62.4583" y1="31.7799" x2="-2.4583" y2="25.8801" gradientTransform="matrix(1 0 0 -1 0 58.83)">
	<stop  offset="0" style="stop-color:#BD489A"/>
	<stop  offset="1" style="stop-color:#2B499E"/>
</linearGradient>
<rect y="0" class="st0" width="60" height="60"/>
<g class="st1">
	
		<linearGradient id="SVGID_2_" gradientUnits="userSpaceOnUse" x1="-583.1168" y1="-1510.5896" x2="-525.1468" y2="-1510.5896" gradientTransform="matrix(-0.9959 9.045881e-02 9.045881e-02 0.9959 -385.2936 1584.3036)">
		<stop  offset="0" style="stop-color:#BD489A"/>
		<stop  offset="1" style="stop-color:#2B499E"/>
	</linearGradient>
	<path class="st2" d="M38.7,6.6h0.4c1.2,0,2.3,0.6,3,1.5l16.1,20.7c1.3,1.7,1,4.1-0.7,5.4c0,0-0.1,0-0.1,0.1l-13.8,10
		c-0.2,0.1-0.3,0.2-0.4,0.4l-6.1,6c-0.6,0.6-1.5,1-2.4,1.1l0,0l-18.7,1.7c-1.4,0.1-2.8-0.5-3.6-1.7L1.6,35.2C0.5,33.4,1,31,2.8,29.8
		c0.3-0.2,0.6-0.4,1-0.5l18.5-5.3c0.8-0.2,1.4-0.7,1.9-1.3L36.1,8C36.7,7.2,37.7,6.7,38.7,6.6z"/>
</g>
<path d="M50.4,32c-0.4-1.1-1.3-1.9-2.4-2.2l0,0c-0.9-0.2-1.8,0-2.5,0.5l-4.3,2.9l-9.6-3.6c-0.4-0.1-0.9-0.1-1.2,0.2l-1.8,1.3
	c-0.1,0.1-0.1,0.1-0.2,0.2c-0.2,0.3-0.3,0.6-0.3,0.9c0,0.4,0.2,0.7,0.5,0.9l6.4,4L32.4,39l-2.6-1.6l-0.1,0c-0.4-0.1-0.8-0.1-1.1,0.2
	l-2.4,2.1c-0.1,0.1-0.1,0.1-0.2,0.2c-0.2,0.2-0.3,0.5-0.3,0.8c0,0.3,0.2,0.6,0.5,0.8l5.7,4c0.5,0.4,1.2,0.4,1.7,0l15.5-9.6
	c1-0.6,1.6-1.7,1.5-2.9C50.6,32.7,50.6,32.3,50.4,32z M48.4,34.9l-15.5,9.6c-0.1,0.1-0.3,0.1-0.4,0l-5.6-4l2.2-2l2.9,1.7
	c0.2,0.1,0.5,0.1,0.7,0l3.8-2.7c0.3-0.2,0.3-0.6,0.1-0.9c0-0.1-0.1-0.1-0.1-0.1l-7.1-4.4l1.8-1.3l9.9,3.7c0.2,0.1,0.4,0,0.6-0.1
	l4.6-3.1c0.4-0.3,1-0.4,1.5-0.3c0.7,0.2,1.3,0.7,1.5,1.4c0.1,0.2,0.1,0.4,0.1,0.7C49.4,33.8,49,34.4,48.4,34.9L48.4,34.9z"/>
<path d="M10.6,22.3H33c0,0,0,0,0,0.1V25c0,0.3,0.2,0.7,0.5,0.7c0.3,0,0.7-0.2,0.7-0.5c0-0.1,0-0.1,0-0.2v-2.7c0-0.3-0.1-0.6-0.2-0.9
	l0,0c-0.1-0.2-0.3-0.5-0.5-0.7L27.9,15c-0.4-0.4-1-0.7-1.6-0.7h-8.8c-0.6,0-1.2,0.2-1.6,0.7l-5.8,5.7c-0.2,0.2-0.3,0.4-0.5,0.7l0,0
	c-0.1,0.3-0.2,0.6-0.2,0.9v16.3c0,1.3,1,2.3,2.3,2.3h8.5c0.3,0,0.7-0.2,0.7-0.5c0-0.3-0.2-0.7-0.5-0.7c-0.1,0-0.1,0-0.2,0h-8.5
	c-0.6,0-1.1-0.5-1.1-1.1L10.6,22.3C10.6,22.3,10.6,22.3,10.6,22.3z M27,15.8l5.2,5.2h-9.7v-5.5h3.8C26.5,15.5,26.8,15.6,27,15.8z
	 M16.7,15.8c0.2-0.2,0.5-0.3,0.8-0.3h3.8V21h-9.7L16.7,15.8z"/>
</svg>
