<?xml version="1.0" encoding="utf-8"?>
<!-- Generator: Adobe Illustrator 21.0.0, SVG Export Plug-In . SVG Version: 6.00 Build 0)  -->
<svg version="1.1" id="Isolation_Mode" xmlns="http://www.w3.org/2000/svg" xmlns:xlink="http://www.w3.org/1999/xlink" x="0px"
	 y="0px" viewBox="0 0 60 60" style="enable-background:new 0 0 60 60;" xml:space="preserve">
<style type="text/css">
	.st0{fill:url(#SVGID_1_);fill-opacity:0;}
	.st1{opacity:0.6;}
	.st2{fill:url(#SVGID_2_);}
</style>
<title>platesti-in-siguranta</title>
<linearGradient id="SVGID_1_" gradientUnits="userSpaceOnUse" x1="62.4583" y1="31.7799" x2="-2.4583" y2="25.8801" gradientTransform="matrix(1 0 0 -1 0 58.83)">
	<stop  offset="0" style="stop-color:#BD489A"/>
	<stop  offset="1" style="stop-color:#2B499E"/>
</linearGradient>
<rect y="0" class="st0" width="60" height="60"/>
<g class="st1">
	
		<linearGradient id="SVGID_2_" gradientUnits="userSpaceOnUse" x1="64.5671" y1="28.8226" x2="122.5671" y2="28.8226" gradientTransform="matrix(6.123234e-17 -1 -1 -6.123234e-17 58.83 123.56)">
		<stop  offset="0" style="stop-color:#BD489A"/>
		<stop  offset="1" style="stop-color:#2B499E"/>
	</linearGradient>
	<path class="st2" d="M6.6,21.3c0-0.1,0-0.3,0-0.4c0-1.2,0.6-2.3,1.5-3L28.8,1.8c1.7-1.3,4.1-1,5.4,0.7c0,0,0,0.1,0.1,0.1l10,13.8
		c0.1,0.2,0.2,0.3,0.4,0.4l6,6.1c0.6,0.6,1,1.5,1.1,2.4l0,0l1.7,18.7c0.1,1.4-0.5,2.8-1.7,3.6L35.2,58.4c-1.8,1.2-4.2,0.6-5.3-1.2
		c-0.2-0.3-0.4-0.6-0.5-1l-5.3-18.5c-0.2-0.8-0.7-1.4-1.3-1.9L8,23.9C7.2,23.3,6.7,22.3,6.6,21.3z"/>
</g>
<g>
	<path d="M30,32c-2.3,0-4.2,1.9-4.2,4.2s1.9,4.2,4.2,4.2s4.2-1.9,4.2-4.2S32.3,32,30,32z M30,39.1c-1.6,0-2.9-1.3-2.9-2.9
		s1.3-2.9,2.9-2.9s2.9,1.3,2.9,2.9S31.6,39.1,30,39.1z"/>
	<path d="M40.3,24.5v-4.1c0-0.2,0-0.4,0-0.7c-0.1-2.8-1.2-5.3-3.3-7.2s-4.6-2.9-7.4-2.8c-5.7,0.2-10.2,5-10,10.6v4.2
		c-3.1,1-5.3,3.9-5.3,7.3v10.6c0,4.2,3.4,7.7,7.7,7.7h15.9c4.2,0,7.7-3.4,7.7-7.7V31.8C45.6,28.4,43.4,25.5,40.3,24.5z M20.9,20.3
		c-0.2-5,3.8-9.2,8.8-9.4c2.4-0.1,4.7,0.8,6.5,2.5c1.8,1.7,2.8,3.9,2.9,6.3c0,0.2,0,0.4,0,0.6v3.9c-0.4-0.1-0.7-0.1-1.1-0.1H22.1
		c-0.4,0-0.8,0-1.1,0.1L20.9,20.3z M44.4,42.3c0,3.5-2.9,6.4-6.4,6.4H22.1c-3.5,0-6.4-2.9-6.4-6.4V31.8c0-3.5,2.9-6.4,6.4-6.4h15.9
		c3.5,0,6.4,2.9,6.4,6.4V42.3z"/>
</g>
</svg>
